<?xml version="1.0" encoding="utf-8"?>
<!-- Generator: Adobe Illustrator 23.0.1, SVG Export Plug-In . SVG Version: 6.00 Build 0)  -->
<svg version="1.1" id="Lager_1" xmlns="http://www.w3.org/2000/svg" xmlns:xlink="http://www.w3.org/1999/xlink" x="0px" y="0px"
	 viewBox="0 0 424.9 165.673" enable-background="new 0 0 424.9 165.673" xml:space="preserve">
<title>TRR_logo_lila</title>
<polygon fill="#FFFFFF" points="0,0.1 0,23.8 46.7,23.8 46.7,161 73.2,161 73.2,23.8 120.1,23.8 120.1,0.1 "/>
<path fill="#FFFFFF" d="M188.2,89.1c17.5,0,30.4-13.8,30.4-32.7s-12.9-32.6-30.4-32.6h-31.3v65.3H188.2z M210.8,109.1l31.8,52h-30.1
	L196.6,135c-8.4-13.8-23.4-22.2-39.5-22.2v48.3h-26.5V0.1H190c32.2,0,55.2,23.5,55.2,56.3C245,81.5,231.4,101.2,210.8,109.1"/>
<path fill="#FFFFFF" d="M412.3,135.5c-6.1,2.5-9.3,4-17.9,5c-27.1,3-42.1-12-57.8-31.5c20.7-7.8,34.3-27.6,34.3-52.7
	c0-32.9-23-56.3-55.2-56.3h-59.4v161h26.5v-48.3c12.4,0,24.3,5,33,13.8c0,0,10.2,11.1,16.3,17c8.2,7.9,29.8,24.5,65.4,21.9
	c10.9-0.8,19.9-4.1,27.4-6.4L412.3,135.5z M314.2,89.1h-31.3V23.8h31.3c17.5,0,30.4,13.8,30.4,32.7S331.6,89.1,314.2,89.1"/>
</svg>
