<?xml version="1.0" encoding="utf-8"?>
<!-- Generator: Adobe Illustrator 23.0.1, SVG Export Plug-In . SVG Version: 6.00 Build 0)  -->
<svg version="1.1" id="Lager_1" xmlns="http://www.w3.org/2000/svg" xmlns:xlink="http://www.w3.org/1999/xlink" x="0px" y="0px"
	 viewBox="0 0 566.9 303.3" style="enable-background:new 0 0 566.9 303.3;" xml:space="preserve">
<style type="text/css">
	.st0{fill:#FFFFFF;}
</style>
<title>TRR_logo_lila</title>
<polygon class="st0" points="71,71.3 71,95 117.7,95 117.7,232.2 144.2,232.2 144.2,95 191.1,95 191.1,71.3 "/>
<path class="st0" d="M259.2,160.3c17.5,0,30.4-13.8,30.4-32.7S276.7,95,259.2,95h-31.3v65.3L259.2,160.3z M281.8,180.3l31.8,52
	h-30.1l-15.9-26.1c-8.4-13.8-23.4-22.2-39.5-22.2v48.3h-26.5v-161h59.4c32.2,0,55.2,23.5,55.2,56.3
	C316,152.7,302.4,172.4,281.8,180.3"/>
<path class="st0" d="M483.3,206.7c-6.1,2.5-9.3,4-17.9,5c-27.1,3-42.1-12-57.8-31.5c20.7-7.8,34.3-27.6,34.3-52.7
	c0-32.9-23-56.3-55.2-56.3h-59.4v161h26.5v-48.3c12.4,0,24.3,5,33,13.8c0,0,10.2,11.1,16.3,17c8.2,7.9,29.8,24.5,65.4,21.9
	c10.9-0.8,19.9-4.1,27.4-6.4L483.3,206.7z M385.2,160.3h-31.3V95h31.3c17.5,0,30.4,13.8,30.4,32.7S402.6,160.3,385.2,160.3"/>
</svg>
