<?xml version="1.0" encoding="utf-8"?>
<!-- Generator: Adobe Illustrator 23.0.1, SVG Export Plug-In . SVG Version: 6.00 Build 0)  -->
<svg version="1.1" id="Layer_1" xmlns="http://www.w3.org/2000/svg" xmlns:xlink="http://www.w3.org/1999/xlink" x="0px" y="0px"
	 viewBox="0 0 308.6 254.7" style="enable-background:new 0 0 308.6 254.7;" xml:space="preserve">
<path d="M37.5,19.6c-0.6-3.8-3.8-9.5-12.1-9.5c-6.3,0-10.6,4.2-10.6,8.9c0,3.9,2.4,6.9,7.2,7.9l8.9,1.8c10.9,2.2,16.8,9.1,16.8,17.8
	c0,9.6-7.8,18.8-21.9,18.8c-15.7,0-23-10.1-23.9-19l9.8-2.8c0.6,6.5,5.2,12.4,14.1,12.4c7.4,0,11.3-3.8,11.3-8.6c0-4-3-7.2-8.3-8.4
	L20,37.2c-9.4-1.9-15.7-8.1-15.7-17.4c0-10.4,9.5-18.9,21-18.9c14.6,0,20.2,8.9,21.6,15.8L37.5,19.6z"/>
<path d="M88.2,21.6l10,29.4l8.5-29.4H117l-13.6,42.5H93.2L82.7,33.5L72.4,64.1H62L48.2,21.6H59L67.6,51l10-29.4H88.2z"/>
<path d="M158.6,51.9c-2.3,7.4-9,13.4-19.2,13.4c-11.5,0-21.7-8.4-21.7-22.8c0-13.4,10-22.3,20.7-22.3c13.1,0,20.8,8.6,20.8,22.1
	c0,1.7-0.2,3.1-0.3,3.2h-31.1c0.3,6.5,5.3,11.1,11.6,11.1c6.1,0,9.3-3.2,10.6-7.4L158.6,51.9z M148.9,38.1c-0.2-5-3.5-9.4-10.5-9.4
	c-6.4,0-10,4.9-10.4,9.4H148.9z"/>
<path d="M205.5,56.3c0,3.8,0.3,7.1,0.4,7.8h-9.7c-0.2-1-0.4-3.8-0.4-5.5c-2,3.6-6.5,6.5-12.5,6.5c-12.2,0-20.4-9.6-20.4-22.4
	c0-12.2,8.3-22.3,20.2-22.3c7.4,0,11.2,3.4,12.5,6.1V0.9h9.9V56.3z M184.4,56.2c6.6,0,11.3-5.5,11.3-13.6s-4.5-13.2-11.2-13.2
	c-6.6,0-11.5,5.1-11.5,13.3S177.5,56.2,184.4,56.2z"/>
<path d="M219.1,0c3.7,0,6.6,3,6.6,6.6c0,3.7-3,6.5-6.6,6.5s-6.5-2.9-6.5-6.5C212.5,3,215.5,0,219.1,0z M214.1,64.1V21.6h10v42.5
	H214.1z"/>
<path d="M239.7,50.1c0.3,3.8,3.2,7.2,8.6,7.2c4.2,0,6.4-2.3,6.4-4.9c0-2.3-1.6-4-5-4.7l-6.3-1.4C235.9,44.7,232,39.8,232,34
	c0-7.4,6.8-13.7,15.6-13.7c11.9,0,15.7,7.7,16.4,11.9l-8.6,2.4c-0.3-2.4-2.2-6.4-7.9-6.4c-3.6,0-6.1,2.3-6.1,4.9
	c0,2.3,1.7,3.9,4.3,4.5l6.5,1.3c8,1.7,12.2,6.6,12.2,12.9c0,6.5-5.2,13.6-16.1,13.6c-12.3,0-17-8-17.5-12.8L239.7,50.1z"/>
<path d="M281,64.1h-10.1V0.9H281v24.8c2.9-3.8,7.7-5.3,12.1-5.3c10.5,0,15.5,7.5,15.5,16.8v26.9h-10.1V38.9c0-5.2-2.4-9.4-8.7-9.4
	c-5.6,0-8.6,4.2-8.8,9.6V64.1z"/>
<path d="M75.7,96.9h10.8l-17.4,61.9H58.3l-15-46.8l-15,46.8H17.5L0,96.9h11l12.4,45.2l14.5-45.2h10.9l14.8,45.6L75.7,96.9z"/>
<path d="M161.1,126.3c-1.1-0.2-2.3-0.3-3.3-0.3c-7.9,0-11.4,4.5-11.4,12.5v20.2h-10.1v-42.5h9.9v6.8c2-4.6,6.7-7.3,12.3-7.3
	c1.2,0,2.3,0.2,2.7,0.3L161.1,126.3L161.1,126.3z"/>
<path d="M189.3,134.3l17.8,24.5h-12.4l-12.5-17.4l-5.2,5.5v11.9h-10V95.6h10v37.9l16.3-17.2h13.4L189.3,134.3z"/>
<path d="M6.3,253.6v-61.9h10.5v51.9h28.4v10H6.3z"/>
<path d="M62.7,229.2l10.9-1.7c2.4-0.3,3.1-1.6,3.1-3.1c0-3.6-2.4-6.5-8-6.5c-5.3,0-8.3,3.4-8.7,7.7l-9.3-2.1
	c0.8-7.3,7.4-13.9,17.9-13.9c13.1,0,18.1,7.4,18.1,15.9v21.1c0,3.8,0.4,6.4,0.5,6.8h-9.4c-0.1-0.3-0.4-2-0.4-5.4
	c-2,3.2-6.2,6.7-13.1,6.7c-8.9,0-14.4-6.1-14.4-12.8C49.9,234.4,55.5,230.2,62.7,229.2z M76.8,235.9V234l-11.1,1.7
	c-3.1,0.5-5.7,2.3-5.7,5.8c0,2.9,2.2,5.5,6.2,5.5C71.9,246.9,76.8,244.2,76.8,235.9z"/>
<path d="M93.3,253.6v-63.2h10v25.9c1.9-3.3,6.8-6.4,13.4-6.4c12.7,0,19.6,9.7,19.6,22.2c0,12.8-7.6,22.5-20,22.5
	c-6,0-10.6-2.6-13.1-6.7v5.7H93.3z M114.6,218.9c-6.5,0-11.4,4.8-11.4,13.3c0,8.4,5,13.4,11.4,13.4c6.6,0,11.4-5.1,11.4-13.4
	C126,223.7,121.3,218.9,114.6,218.9z"/>
<path d="M129.1,137.5c0,6.5-2.3,12.2-6.3,16.2s-9.4,6.4-15.8,6.4c-6.3,0-11.8-2.4-15.7-6.4S85,144,85,137.5s2.3-12.1,6.3-16.1
	s9.4-6.4,15.7-6.4c6.4,0,11.9,2.4,15.8,6.4S129.1,131,129.1,137.5z M118.9,137.5c0-4.4-1.4-7.7-3.6-10s-5.1-3.4-8.3-3.4
	c-3.1,0-6.1,1.1-8.3,3.4c-2.2,2.3-3.6,5.6-3.6,10s1.4,7.8,3.6,10.1s5.2,3.5,8.3,3.5c3.1,0,6.1-1.2,8.3-3.4S118.9,142,118.9,137.5z"
	/>
</svg>
