<?xml version="1.0" encoding="utf-8"?>
<!-- Generator: Adobe Illustrator 23.0.1, SVG Export Plug-In . SVG Version: 6.00 Build 0)  -->
<svg version="1.1" id="Layer_1" xmlns="http://www.w3.org/2000/svg" xmlns:xlink="http://www.w3.org/1999/xlink" x="0px" y="0px"
	 viewBox="0 0 350.093 287.681" enable-background="new 0 0 350.093 287.681" xml:space="preserve">
<g>
	<path fill="#FFFFFF" d="M40.915,53.801c0-2.749-0.988-5.003-2.962-6.759c-1.974-1.751-5.473-3.325-10.492-4.717
		c-7.196-1.964-12.743-4.541-16.646-7.734C6.911,31.4,4.959,27.236,4.959,22.091c0-5.321,2.145-9.707,6.429-13.155
		s9.795-5.172,16.531-5.172c7.224,0,13.005,1.914,17.335,5.739c4.33,3.829,6.419,8.551,6.268,14.176l-0.092,0.272H40.685
		c0-3.475-1.172-6.242-3.513-8.301c-2.342-2.055-5.455-3.084-9.345-3.084c-3.765,0-6.668,0.88-8.702,2.631
		c-2.034,1.755-3.054,4.023-3.054,6.804c0,2.541,1.116,4.636,3.352,6.283c2.237,1.651,5.938,3.216,11.113,4.696
		c7.012,1.937,12.352,4.577,16.026,7.916c3.673,3.343,5.51,7.616,5.51,12.815c0,5.476-2.172,9.844-6.521,13.11
		c-4.349,3.267-10.056,4.899-17.128,4.899c-6.796,0-12.719-1.783-17.771-5.353C5.602,62.8,3.155,57.765,3.307,51.26l0.092-0.272
		h10.745c0,3.965,1.387,6.949,4.156,8.959c2.769,2.014,6.145,3.017,10.125,3.017c3.949,0,7.017-0.821,9.207-2.473
		C39.822,58.845,40.915,56.613,40.915,53.801z"/>
	<path fill="#FFFFFF" d="M106.121,56.205h0.275l7.255-34.522h11.159l-13.592,49.084h-9.138l-10.515-32.48h-0.276l-10.378,32.48
		h-9.138L58.18,21.683h11.158l7.439,34.068h0.275l10.378-34.068h8.128L106.121,56.205z"/>
	<path fill="#FFFFFF" d="M153.694,71.719c-7.256,0-12.926-2.259-17.013-6.781c-4.087-4.518-6.13-10.379-6.13-17.578v-1.814
		c0-7.195,2.044-13.133,6.13-17.805c4.087-4.673,9.358-6.991,15.82-6.964c6.672,0,11.723,2.037,15.153,6.102
		c3.43,4.069,5.143,9.503,5.143,16.308v5.942h-30.72l-0.092,0.227c0.124,4.024,1.194,7.29,3.214,9.798
		c2.021,2.513,5.065,3.765,9.138,3.765c3.031,0,5.658-0.363,7.875-1.089c2.218-0.726,4.28-1.769,6.176-3.13l3.628,7.213
		c-1.897,1.633-4.408,3.012-7.531,4.128C161.362,71.161,157.767,71.719,153.694,71.719z M152.5,29.622
		c-2.907,0-5.235,1.039-6.98,3.108c-1.745,2.073-2.833,4.772-3.26,8.097l0.092,0.227h19.424v-0.862c0-3.143-0.744-5.693-2.227-7.644
		C158.065,30.597,155.714,29.622,152.5,29.622z"/>
	<path fill="#FFFFFF" d="M179.776,46.905c0-7.829,1.699-14.144,5.097-18.939c3.398-4.791,8.174-7.19,14.327-7.19
		c2.696,0,5.106,0.54,7.233,1.61c2.126,1.075,3.972,2.608,5.533,4.604V0h11.158v70.767h-9.046l-1.332-6.215
		c-1.594,2.332-3.523,4.106-5.786,5.33c-2.264,1.225-4.881,1.837-7.852,1.837c-6.094,0-10.837-2.191-14.235-6.577
		c-3.398-4.382-5.097-10.143-5.097-17.283V46.905z M190.935,47.858c0,4.536,0.882,8.152,2.64,10.842
		c1.759,2.695,4.556,4.037,8.38,4.037c2.356,0,4.353-0.499,5.993-1.497c1.639-0.998,2.976-2.418,4.018-4.264V35.564
		c-1.042-1.814-2.388-3.225-4.041-4.241c-1.653-1.011-3.614-1.519-5.878-1.519c-3.797,0-6.599,1.583-8.403,4.74
		c-1.805,3.162-2.709,7.281-2.709,12.361V47.858z"/>
	<path fill="#FFFFFF" d="M247.002,9.662h-11.158V0h11.158V9.662z M247.002,70.767h-11.158V21.683h11.158V70.767z"/>
	<path fill="#FFFFFF" d="M287.412,57.339c0-1.692-0.725-3.089-2.181-4.196c-1.456-1.102-4.201-2.091-8.242-2.971
		c-5.846-1.18-10.318-2.917-13.409-5.217c-3.09-2.295-4.638-5.38-4.638-9.254c0-4.109,1.759-7.625,5.281-10.547
		c3.523-2.917,8.16-4.378,13.914-4.378c5.937,0,10.723,1.506,14.35,4.514c3.628,3.012,5.363,6.632,5.212,10.864l-0.092,0.272
		h-10.699c0-1.996-0.795-3.725-2.388-5.194c-1.593-1.465-3.719-2.2-6.383-2.2c-2.695,0-4.744,0.608-6.153,1.815
		c-1.41,1.211-2.112,2.695-2.112,4.445c0,1.665,0.657,2.994,1.974,3.992c1.318,0.998,4.027,1.891,8.128,2.676
		c6.094,1.211,10.686,2.989,13.776,5.33c3.091,2.345,4.638,5.485,4.638,9.413c0,4.419-1.846,8.025-5.534,10.819
		c-3.688,2.799-8.551,4.196-14.58,4.196c-6.461,0-11.558-1.633-15.291-4.899c-3.733-3.266-5.51-7.013-5.327-11.25l0.092-0.272
		h10.378c0.124,2.845,1.162,4.917,3.123,6.215c1.961,1.302,4.349,1.951,7.163,1.951c2.847,0,5.06-0.558,6.635-1.678
		C286.622,60.668,287.412,59.185,287.412,57.339z"/>
	<path fill="#FFFFFF" d="M319.418,28.034c1.653-2.295,3.664-4.083,6.039-5.353c2.374-1.27,4.996-1.905,7.875-1.905
		c5.267,0,9.376,1.643,12.33,4.922c2.952,3.284,4.431,8.342,4.431,15.174v29.895h-11.159V40.781c0-3.838-0.757-6.627-2.273-8.37
		c-1.515-1.737-3.774-2.608-6.773-2.608c-2.388,0-4.455,0.417-6.2,1.248c-1.745,0.834-3.168,1.991-4.271,3.47v36.245H308.26V0
		h11.158V28.034z"/>
	<path fill="#FFFFFF" d="M57.262,163.833h0.276l9.827-47.631H79.12l-15.888,66.049H53.083l-13.363-46.997h-0.276l-13.409,46.997
		H15.843L0,116.202h11.71l9.918,47.586h0.276l12.72-47.586h9.827L57.262,163.833z"/>
	<path fill="#FFFFFF" d="M207.584,143.102l-4.775-0.181c-2.172,0-3.986,0.453-5.442,1.361c-1.456,0.907-2.581,2.196-3.375,3.856
		v34.114h-11.159v-49.084h10.194l0.735,7.122c1.253-2.509,2.87-4.473,4.844-5.897c1.975-1.42,4.248-2.132,6.819-2.132
		c0.675,0,1.3,0.055,1.883,0.159c0.583,0.109,1.116,0.236,1.607,0.385L207.584,143.102z"/>
	<path fill="#FFFFFF" d="M231.141,160.794h-4.133v21.457h-11.113v-70.767h11.113v40.464h3.811l13.455-18.781h13.087l-17.037,22.591
		l18.919,26.493h-12.995L231.141,160.794z"/>
	<path fill="#FFFFFF" d="M18.298,277.928h31.318v8.801H7.139V220.68h11.158V277.928z"/>
	<path fill="#FFFFFF" d="M87.867,286.729c-0.4-1.239-0.726-2.45-0.988-3.629c-0.262-1.179-0.436-2.359-0.528-3.538
		c-1.501,2.3-3.503,4.228-6.016,5.784c-2.512,1.56-5.313,2.336-8.403,2.336c-5.175,0-9.147-1.316-11.916-3.947
		c-2.769-2.631-4.156-6.242-4.156-10.842c0-4.745,1.896-8.442,5.694-11.091c3.797-2.645,9.138-3.969,16.026-3.969h8.678v-4.31
		c0-2.568-0.758-4.582-2.273-6.033c-1.516-1.452-3.71-2.178-6.59-2.178c-2.539,0-4.56,0.599-6.062,1.792
		c-1.501,1.197-2.25,2.744-2.25,4.65l-10.745,0.045l-0.046-0.272c-0.216-3.869,1.538-7.303,5.258-10.297
		c3.719-2.994,8.564-4.491,14.534-4.491c5.785,0,10.456,1.452,14.006,4.355c3.55,2.903,5.326,7.077,5.326,12.52v21.82
		c0,2.027,0.138,3.969,0.414,5.829c0.275,1.86,0.721,3.684,1.332,5.467H87.867z M74.229,278.835c2.787,0,5.304-0.694,7.554-2.086
		c2.25-1.388,3.742-2.976,4.477-4.763v-7.258h-8.863c-3.247,0-5.786,0.794-7.623,2.382c-1.837,1.588-2.755,3.457-2.755,5.602
		c0,1.878,0.62,3.366,1.86,4.468C70.118,278.287,71.9,278.835,74.229,278.835z"/>
	<path fill="#FFFFFF" d="M152.705,263.82c0,7.167-1.69,12.938-5.074,17.306c-3.384,4.373-8.151,6.555-14.304,6.555
		c-3.122,0-5.832-0.635-8.128-1.905c-2.296-1.27-4.211-3.112-5.74-5.534l-1.331,6.487h-9.046v-70.767h11.158v27.263
		c1.529-2.086,3.366-3.688,5.511-4.808c2.145-1.117,4.638-1.679,7.485-1.679c6.213,0,11.011,2.391,14.396,7.168
		c3.384,4.781,5.074,11.1,5.074,18.962V263.82z M141.547,262.868c0-5.108-0.886-9.236-2.664-12.384
		c-1.777-3.143-4.592-4.718-8.449-4.718c-2.48,0-4.556,0.545-6.222,1.633c-1.667,1.088-2.994,2.604-3.972,4.536v20.595
		c0.951,1.968,2.264,3.488,3.95,4.559c1.685,1.075,3.797,1.61,6.337,1.61c3.857,0,6.658-1.338,8.403-4.014
		c1.745-2.676,2.618-6.297,2.618-10.865V262.868z"/>
	<path fill="#FFFFFF" d="M100.815,130.761c3.644-2.269,6.643-2.298,12.063-2.152c6.209,0.168,13.937,0.377,22.599-5.015
		c1.379-0.858,2.755-1.847,4.091-2.94c2.179-1.782,4.589-3.507,6.968-4.988c8.076-5.027,15.386-6.918,17.38-4.497
		c2.296,2.788,3.537,10.853,1.316,20.31c-0.181,0.768-0.382,1.529-0.602,2.277c-0.794,2.094-1.791,3.05-3.036,3.824
		c-1.39,0.865-3.265,1.561-5.25,2.298c-2.497,0.927-5.329,1.978-8.052,3.673c-2.137,1.33-3.909,2.86-5.409,4.669
		c-0.745,0.824-1.482,1.75-2.248,2.821c-1.479,2.07-2.73,4.206-3.941,6.272c-1.47,2.51-2.991,5.105-4.238,6.284l-0.851,0.804
		l-0.629,0.986l-1.008,1.589c-0.675,1.069-1.369,2.176-2.112,3.367c-0.518,0.361-1.02,0.713-1.505,1.057l-0.478,0.339l-0.433,0.395
		c-0.474,0.433-0.943,0.85-1.414,1.236c-0.619,0.509-1.249,0.963-1.872,1.351c-5.295,3.296-11.647,2.519-21.856-2.7
		c-0.401-0.271-0.756-0.538-1.076-0.809c-0.974-0.827-1.961-1.987-2.932-3.45l-0.117-0.176l-0.125-0.171
		c-0.445-0.607-0.817-1.206-1.138-1.831c-4.716-9.179-1.662-28.839,3.801-33.306C99.42,131.698,100.127,131.189,100.815,130.761
		L100.815,130.761 M95.901,122.874c-1.014,0.631-2.044,1.367-3.097,2.228c-9.692,7.925-12.467,32.688-6.25,44.789
		c0.565,1.1,1.202,2.111,1.899,3.062c1.505,2.267,3.054,4.026,4.641,5.373c0.793,0.673,1.597,1.246,2.396,1.759
		c11.017,5.702,21.672,8.689,31.58,2.521c0.969-0.603,1.929-1.293,2.883-2.077c0.596-0.489,1.189-1.013,1.788-1.56
		c0.947-0.672,1.964-1.377,3.031-2.114c1.088-1.744,2.124-3.403,3.12-4.982c0.332-0.526,0.661-1.043,0.985-1.552
		c3.582-3.385,6.119-9.367,9.382-13.935c0.544-0.761,1.108-1.483,1.709-2.13c0.928-1.158,2.026-2.064,3.238-2.818
		c3.91-2.434,8.994-3.289,13.302-5.971c2.885-1.796,5.421-4.41,7.024-8.865c0.305-1.014,0.581-2.046,0.827-3.091
		c2.456-10.456,1.842-22.21-3.166-28.29c-6.688-8.119-19.319-3.822-29.573,2.561c-2.909,1.811-5.626,3.788-7.963,5.699
		c-1.052,0.86-2.084,1.598-3.097,2.228C118.086,123.475,108.376,115.109,95.901,122.874L95.901,122.874z"/>
</g>
</svg>
