<?xml version="1.0" encoding="utf-8"?>
<!-- Generator: Adobe Illustrator 23.0.1, SVG Export Plug-In . SVG Version: 6.00 Build 0)  -->
<svg version="1.1" id="Layer_1" xmlns="http://www.w3.org/2000/svg" xmlns:xlink="http://www.w3.org/1999/xlink" x="0px" y="0px"
	 viewBox="0 0 320.4 282.5" style="enable-background:new 0 0 320.4 282.5;" xml:space="preserve">
<style type="text/css">
	.st0{fill:#FFFFFF;}
</style>
<path class="st0" d="M38.6,20.2c-0.6-3.9-3.9-9.8-12.5-9.8c-6.5,0-10.9,4.3-10.9,9.2c0,4,2.5,7.1,7.4,8.2l9.2,1.9
	C43,31.9,49,38.9,49,47.9c0,9.9-8,19.3-22.5,19.3c-16.2,0-23.6-10.4-24.6-19.6l10-2.9c0.6,6.6,5.4,12.7,14.5,12.7
	c7.6,0,11.6-3.9,11.6-8.8c0-4.1-3-7.4-8.5-8.6l-9-1.9c-9.7-2-16.2-8.3-16.2-17.9C4.4,9.7,14.2,0.9,26,0.9c15,0,20.8,9.2,22.3,16.2
	L38.6,20.2z"/>
<path class="st0" d="M90.6,22.2l10.3,30.2l8.7-30.2h10.6l-14,43.7H95.8L85,34.5L74.4,65.9H63.7L49.5,22.2h11.1l8.9,30.2l10.3-30.2
	H90.6z"/>
<path class="st0" d="M163,53.4c-2.3,7.6-9.2,13.8-19.7,13.8c-11.8,0-22.3-8.6-22.3-23.4c0-13.8,10.2-23,21.3-23
	c13.5,0,21.4,8.9,21.4,22.7c0,1.7-0.2,3.1-0.3,3.3h-31.9c0.3,6.6,5.5,11.4,11.9,11.4c6.3,0,9.5-3.3,10.9-7.6L163,53.4z M153.1,39.2
	c-0.2-5.1-3.6-9.7-10.8-9.7c-6.5,0-10.3,5-10.7,9.7H153.1z"/>
<path class="st0" d="M211.2,57.9c0,3.9,0.4,7.3,0.4,8h-10c-0.2-1-0.4-3.9-0.4-5.7c-2.1,3.7-6.6,6.7-12.8,6.7c-12.6,0-21-9.9-21-23.1
	c0-12.6,8.5-22.9,20.8-22.9c7.6,0,11.5,3.5,12.8,6.3V0.9h10.1L211.2,57.9L211.2,57.9z M189.6,57.8c6.8,0,11.6-5.7,11.6-14
	s-4.7-13.5-11.5-13.5s-11.8,5.3-11.8,13.6C177.8,52.2,182.5,57.8,189.6,57.8z"/>
<path class="st0" d="M227.3,0c3.8,0,6.8,3.1,6.8,6.8c0,3.8-3.1,6.7-6.8,6.7s-6.7-3-6.7-6.7S223.6,0,227.3,0z M222.2,65.9V22.2h10.3
	v43.7H222.2z"/>
<path class="st0" d="M248.5,51.5c0.4,3.9,3.3,7.4,8.9,7.4c4.3,0,6.5-2.3,6.5-5c0-2.3-1.6-4.1-5.1-4.8l-6.5-1.4
	C244.6,46,240.5,41,240.5,35c0-7.6,7-14.1,16.1-14.1c12.2,0,16.2,7.9,16.9,12.2l-8.8,2.5c-0.4-2.5-2.2-6.5-8.1-6.5
	c-3.7,0-6.3,2.3-6.3,5c0,2.3,1.7,4,4.4,4.6l6.6,1.3c8.3,1.8,12.6,6.8,12.6,13.3c0,6.6-5.4,14-16.5,14c-12.7,0-17.5-8.3-18-13.2
	L248.5,51.5z"/>
<path class="st0" d="M292,65.9h-10.4v-65H292v25.5c3-3.9,7.9-5.5,12.5-5.5c10.8,0,16,7.7,16,17.3v27.6H310V40c0-5.4-2.4-9.7-9-9.7
	c-5.7,0-8.9,4.3-9.1,9.9v25.7C291.9,65.9,292,65.9,292,65.9z"/>
<path class="st0" d="M77.8,109.9h11.1L71,173.5H59.9l-15.4-48.1l-15.4,48.1H18L0,109.9h11.3L24,156.4l14.9-46.5h11.2l15.2,46.8
	L77.8,109.9z"/>
<path class="st0" d="M165.6,140.2c-1.2-0.2-2.3-0.3-3.4-0.3c-8.1,0-11.8,4.7-11.8,12.8v20.8H140v-43.7h10.1v7
	c2.1-4.8,6.9-7.5,12.7-7.5c1.3,0,2.3,0.2,2.8,0.3V140.2L165.6,140.2z"/>
<path class="st0" d="M194.6,148.3l18.3,25.2h-12.7l-12.8-17.9l-5.4,5.7v12.2h-10.3v-65H182v38.9l16.8-17.7h13.8L194.6,148.3z"/>
<path class="st0" d="M6.5,281.2v-63.6h10.8V271h29.2v10.2H6.5z"/>
<path class="st0" d="M63.4,256.2l11.2-1.7c2.5-0.4,3.2-1.6,3.2-3.1c0-3.7-2.5-6.6-8.3-6.6c-5.5,0-8.5,3.5-9,7.9l-9.5-2.2
	c0.8-7.5,7.6-14.3,18.4-14.3c13.5,0,18.6,7.6,18.6,16.3v21.7c0,3.9,0.4,6.5,0.5,7H79c-0.1-0.3-0.4-2.1-0.4-5.6
	c-2.1,3.3-6.4,6.9-13.5,6.9c-9.2,0-14.8-6.3-14.8-13.2C50.2,261.6,56,257.2,63.4,256.2z M77.9,263.1v-2l-11.4,1.7
	c-3.2,0.5-5.8,2.3-5.8,5.9c0,3,2.2,5.7,6.4,5.7C72.9,274.4,77.9,271.6,77.9,263.1z"/>
<path class="st0" d="M98,281.2v-65h10.2v26.6c2-3.4,7-6.5,13.7-6.5c13.1,0,20.2,10,20.2,22.8c0,13.2-7.8,23.1-20.5,23.1
	c-6.2,0-10.9-2.7-13.5-6.9v5.8H98V281.2z M119.9,245.6c-6.6,0-11.8,4.9-11.8,13.6c0,8.6,5.1,13.8,11.8,13.8
	c6.8,0,11.8-5.2,11.8-13.8C131.6,250.5,126.8,245.6,119.9,245.6z"/>
<path class="st0" d="M132.7,151.6c0,3.4-0.6,6.5-1.7,9.3c-1.1,2.8-2.7,5.3-4.7,7.3c-2,2.1-4.4,3.7-7.2,4.8c-2.7,1.1-5.8,1.7-9.1,1.7
	c-3.2,0-6.3-0.6-9-1.7c-2.7-1.1-5.1-2.8-7.2-4.8c-2-2.1-3.6-4.5-4.7-7.3c-1.1-2.8-1.7-5.9-1.7-9.3c0-3.3,0.6-6.5,1.7-9.3
	s2.7-5.3,4.7-7.3c2-2.1,4.4-3.7,7.2-4.8c2.7-1.1,5.8-1.7,9-1.7c3.3,0,6.3,0.6,9.1,1.7c2.7,1.1,5.2,2.8,7.2,4.8
	c2,2.1,3.6,4.5,4.7,7.3C132.1,145.2,132.7,148.3,132.7,151.6z M122.2,151.6c0-2.3-0.4-4.3-1-6s-1.6-3.1-2.7-4.3s-2.4-2-3.9-2.6
	c-1.4-0.6-3-0.9-4.6-0.9c-1.6,0-3.2,0.3-4.6,0.9c-1.4,0.6-2.8,1.4-3.9,2.6c-1.1,1.1-2,2.6-2.7,4.3c-0.6,1.7-1,3.7-1,5.9
	c0,2.3,0.4,4.3,1,6c0.6,1.7,1.6,3.2,2.7,4.4s2.5,2.1,3.9,2.6c1.4,0.6,3,0.9,4.6,0.9c1.6,0,3.2-0.3,4.6-0.9c1.4-0.6,2.8-1.5,3.9-2.6
	c1.1-1.2,2-2.6,2.7-4.3S122.2,153.9,122.2,151.6z"/>
</svg>
