<?xml version="1.0" encoding="utf-8"?>
<!-- Generator: Adobe Illustrator 23.0.1, SVG Export Plug-In . SVG Version: 6.00 Build 0)  -->
<svg version="1.1" id="Layer_1" xmlns="http://www.w3.org/2000/svg" xmlns:xlink="http://www.w3.org/1999/xlink" x="0px" y="0px"
	 viewBox="0 0 211 90.003" enable-background="new 0 0 211 90.003" xml:space="preserve">
<g>
	<path fill="#FFFFFF" d="M19.837,26.03c0-1.33-0.479-2.421-1.436-3.27c-0.957-0.847-2.654-1.609-5.087-2.282
		c-3.489-0.95-6.178-2.197-8.071-3.742c-1.892-1.543-2.838-3.558-2.838-6.047c0-2.574,1.04-4.697,3.117-6.365
		c2.077-1.668,4.749-2.502,8.015-2.502c3.502,0,6.305,0.926,8.405,2.777c2.099,1.852,3.112,4.137,3.039,6.859l-0.045,0.132h-5.209
		c0-1.681-0.568-3.02-1.703-4.016c-1.135-0.994-2.645-1.492-4.531-1.492c-1.826,0-3.233,0.426-4.219,1.273
		c-0.986,0.849-1.48,1.947-1.48,3.292c0,1.229,0.541,2.243,1.625,3.04c1.084,0.799,2.879,1.556,5.388,2.272
		c3.4,0.937,5.989,2.214,7.77,3.83c1.781,1.617,2.671,3.685,2.671,6.2c0,2.649-1.053,4.763-3.161,6.343
		c-2.108,1.58-4.875,2.37-8.304,2.37c-3.295,0-6.167-0.863-8.616-2.59c-2.449-1.725-3.636-4.161-3.562-7.309l0.044-0.132h5.209
		c0,1.918,0.673,3.362,2.015,4.335c1.342,0.974,2.979,1.46,4.909,1.46c1.915,0,3.402-0.397,4.464-1.196
		C19.307,28.47,19.837,27.39,19.837,26.03z"/>
	<path fill="#FFFFFF" d="M51.45,27.193h0.134l3.517-16.702h5.41l-6.59,23.747h-4.43l-5.098-15.714h-0.134l-5.031,15.714h-4.431
		l-6.59-23.747h5.41l3.607,16.483h0.133l5.032-16.483h3.94L51.45,27.193z"/>
	<path fill="#FFFFFF" d="M74.515,34.699c-3.518,0-6.267-1.093-8.248-3.281c-1.981-2.186-2.972-5.022-2.972-8.505v-0.878
		c0-3.481,0.991-6.354,2.972-8.614c1.981-2.261,4.537-3.382,7.67-3.369c3.235,0,5.684,0.986,7.347,2.952
		c1.663,1.969,2.494,4.598,2.494,7.89v2.875H68.882l-0.045,0.11c0.06,1.947,0.579,3.527,1.559,4.741
		c0.98,1.216,2.456,1.822,4.43,1.822c1.469,0,2.743-0.176,3.818-0.527c1.075-0.351,2.075-0.856,2.994-1.514l1.759,3.49
		c-0.92,0.79-2.137,1.458-3.651,1.997C78.233,34.429,76.489,34.699,74.515,34.699z M73.936,14.332c-1.409,0-2.538,0.503-3.384,1.503
		c-0.846,1.003-1.373,2.309-1.581,3.917l0.045,0.11h9.417v-0.417c0-1.521-0.361-2.754-1.08-3.698
		C76.634,14.804,75.494,14.332,73.936,14.332z"/>
	<path fill="#FFFFFF" d="M87.16,22.694c0-3.788,0.824-6.843,2.471-9.163c1.648-2.318,3.963-3.479,6.946-3.479
		c1.307,0,2.476,0.261,3.507,0.779c1.031,0.52,1.926,1.262,2.683,2.228V0h5.41v34.238h-4.386l-0.646-3.007
		c-0.773,1.128-1.708,1.986-2.805,2.579c-1.098,0.593-2.367,0.889-3.807,0.889c-2.954,0-5.254-1.06-6.902-3.182
		c-1.647-2.12-2.471-4.908-2.471-8.362V22.694z M92.57,23.154c0,2.195,0.427,3.944,1.28,5.246c0.853,1.304,2.209,1.953,4.063,1.953
		c1.142,0,2.111-0.241,2.906-0.724c0.795-0.483,1.443-1.17,1.948-2.063V17.207c-0.505-0.878-1.158-1.56-1.959-2.052
		c-0.801-0.489-1.752-0.735-2.85-0.735c-1.841,0-3.199,0.766-4.074,2.293c-0.875,1.53-1.313,3.523-1.313,5.981V23.154z"/>
	<path fill="#FFFFFF" d="M119.753,4.675h-5.41V0h5.41V4.675z M119.753,34.238h-5.41V10.491h5.41V34.238z"/>
	<path fill="#FFFFFF" d="M139.345,27.742c0-0.819-0.352-1.495-1.057-2.03c-0.706-0.533-2.037-1.012-3.996-1.437
		c-2.834-0.571-5.003-1.411-6.501-2.524c-1.498-1.11-2.249-2.603-2.249-4.477c0-1.988,0.853-3.689,2.56-5.103
		c1.708-1.411,3.956-2.118,6.746-2.118c2.879,0,5.199,0.729,6.957,2.184c1.759,1.457,2.6,3.209,2.527,5.256l-0.045,0.132H139.1
		c0-0.966-0.385-1.802-1.158-2.513c-0.772-0.709-1.803-1.064-3.095-1.064c-1.307,0-2.3,0.294-2.983,0.878
		c-0.683,0.586-1.024,1.304-1.024,2.151c0,0.806,0.318,1.449,0.957,1.931c0.639,0.483,1.953,0.915,3.941,1.295
		c2.954,0.586,5.181,1.446,6.679,2.579c1.498,1.135,2.249,2.653,2.249,4.554c0,2.138-0.895,3.883-2.683,5.235
		c-1.788,1.354-4.146,2.03-7.069,2.03c-3.132,0-5.604-0.79-7.413-2.37c-1.81-1.58-2.672-3.393-2.583-5.443l0.045-0.132h5.031
		c0.06,1.376,0.563,2.379,1.514,3.007c0.951,0.63,2.108,0.944,3.473,0.944c1.38,0,2.453-0.27,3.217-0.812
		C138.962,29.352,139.345,28.635,139.345,27.742z"/>
	<path fill="#FFFFFF" d="M154.862,13.563c0.802-1.11,1.777-1.975,2.928-2.59c1.151-0.614,2.422-0.922,3.818-0.922
		c2.553,0,4.546,0.795,5.978,2.381c1.431,1.589,2.148,4.036,2.148,7.341v14.464h-5.41V19.731c0-1.857-0.367-3.206-1.102-4.049
		c-0.735-0.841-1.83-1.262-3.284-1.262c-1.158,0-2.16,0.202-3.006,0.604c-0.846,0.404-1.536,0.964-2.07,1.679v17.536h-5.41V0h5.41
		V13.563z"/>
	<path fill="#FFFFFF" d="M27.762,79.265h0.134l4.764-23.045h5.699l-7.703,31.956h-4.92l-6.479-22.738h-0.134l-6.501,22.738H7.681
		L0,56.221h5.677l4.809,23.023h0.134l6.167-23.023h4.764L27.762,79.265z"/>
	<path fill="#FFFFFF" d="M100.642,69.235l-2.315-0.088c-1.053,0-1.933,0.219-2.638,0.658c-0.706,0.439-1.251,1.062-1.637,1.866
		v16.505h-5.41V64.429h4.942l0.356,3.446c0.608-1.214,1.391-2.164,2.349-2.853c0.957-0.687,2.06-1.031,3.306-1.031
		c0.327,0,0.63,0.027,0.913,0.077c0.283,0.053,0.541,0.114,0.779,0.187L100.642,69.235z"/>
	<path fill="#FFFFFF" d="M112.063,77.795h-2.004v10.381h-5.388V53.938h5.388v19.577h1.848l6.523-9.086h6.345l-8.26,10.93
		l9.172,12.817h-6.3L112.063,77.795z"/>
	<path fill="#FFFFFF" d="M145.836,83.918h15.184v4.258h-20.593V56.221h5.41V83.918z"/>
	<path fill="#FFFFFF" d="M179.565,88.176c-0.194-0.599-0.352-1.185-0.479-1.756c-0.127-0.571-0.212-1.141-0.256-1.712
		c-0.728,1.113-1.699,2.045-2.917,2.798c-1.218,0.755-2.576,1.13-4.074,1.13c-2.509,0-4.435-0.636-5.777-1.909
		c-1.343-1.273-2.015-3.02-2.015-5.245c0-2.296,0.919-4.084,2.761-5.366c1.841-1.279,4.43-1.92,7.77-1.92h4.208v-2.085
		c0-1.242-0.368-2.217-1.102-2.919c-0.735-0.702-1.799-1.054-3.195-1.054c-1.231,0-2.211,0.29-2.939,0.867
		c-0.728,0.579-1.091,1.328-1.091,2.25l-5.209,0.022l-0.022-0.132c-0.105-1.872,0.746-3.533,2.549-4.982
		c1.803-1.449,4.152-2.173,7.046-2.173c2.805,0,5.069,0.702,6.79,2.107c1.721,1.405,2.582,3.424,2.582,6.058v10.557
		c0,0.981,0.067,1.92,0.2,2.82c0.133,0.9,0.35,1.782,0.646,2.645H179.565z M172.953,84.357c1.351,0,2.571-0.336,3.662-1.009
		c1.091-0.672,1.814-1.44,2.171-2.305v-3.512h-4.297c-1.574,0-2.805,0.384-3.696,1.152c-0.891,0.768-1.336,1.673-1.336,2.711
		c0,0.909,0.3,1.629,0.902,2.162C170.96,84.092,171.824,84.357,172.953,84.357z"/>
	<path fill="#FFFFFF" d="M211,77.093c0,3.468-0.819,6.259-2.46,8.373c-1.641,2.116-3.952,3.171-6.935,3.171
		c-1.514,0-2.827-0.307-3.941-0.922c-1.113-0.615-2.041-1.506-2.783-2.678l-0.646,3.139h-4.386V53.938h5.41v13.19
		c0.741-1.01,1.632-1.784,2.672-2.326c1.04-0.54,2.249-0.812,3.629-0.812c3.012,0,5.339,1.157,6.979,3.468
		c1.641,2.313,2.46,5.371,2.46,9.174V77.093z M205.591,76.632c0-2.471-0.43-4.468-1.291-5.992c-0.862-1.521-2.226-2.283-4.096-2.283
		c-1.202,0-2.209,0.263-3.017,0.79c-0.808,0.526-1.452,1.26-1.926,2.195v9.964c0.461,0.952,1.098,1.688,1.915,2.206
		c0.817,0.52,1.841,0.779,3.072,0.779c1.87,0,3.228-0.647,4.074-1.942c0.846-1.295,1.269-3.046,1.269-5.257V76.632z"/>
	<path fill="#FFFFFF" d="M48.878,63.264c1.767-1.098,3.221-1.112,5.849-1.041c3.01,0.081,6.757,0.182,10.957-2.426
		c0.668-0.415,1.336-0.894,1.984-1.422c1.057-0.862,2.225-1.696,3.378-2.413c3.916-2.432,7.459-3.347,8.426-2.176
		c1.113,1.349,1.715,5.251,0.638,9.826c-0.088,0.372-0.185,0.74-0.292,1.102c-0.385,1.013-0.868,1.475-1.472,1.85
		c-0.674,0.419-1.583,0.755-2.545,1.112c-1.211,0.449-2.583,0.957-3.904,1.777c-1.036,0.644-1.896,1.384-2.622,2.259
		c-0.361,0.399-0.718,0.847-1.09,1.365c-0.717,1.002-1.323,2.035-1.91,3.034c-0.713,1.214-1.45,2.47-2.055,3.04l-0.412,0.389
		l-0.305,0.477l-0.489,0.769c-0.327,0.517-0.664,1.053-1.024,1.629c-0.251,0.174-0.494,0.345-0.73,0.511l-0.231,0.164l-0.21,0.191
		c-0.23,0.21-0.457,0.411-0.686,0.598c-0.3,0.246-0.605,0.466-0.907,0.654c-2.567,1.595-5.647,1.219-10.596-1.306
		c-0.195-0.131-0.367-0.26-0.522-0.392c-0.472-0.4-0.951-0.962-1.421-1.669l-0.057-0.085l-0.061-0.083
		c-0.216-0.294-0.396-0.583-0.552-0.886c-2.286-4.441-0.806-13.953,1.843-16.114C48.201,63.718,48.544,63.471,48.878,63.264
		L48.878,63.264 M46.495,59.449c-0.491,0.305-0.991,0.661-1.501,1.078c-4.699,3.834-6.044,15.815-3.03,21.67
		c0.274,0.532,0.583,1.021,0.921,1.481c0.73,1.097,1.481,1.948,2.25,2.6c0.385,0.326,0.774,0.603,1.162,0.851
		c5.341,2.758,10.507,4.204,15.311,1.22c0.47-0.292,0.935-0.625,1.398-1.005c0.289-0.237,0.576-0.49,0.867-0.755
		c0.459-0.325,0.952-0.666,1.47-1.023c0.528-0.844,1.029-1.646,1.513-2.41c0.161-0.254,0.321-0.505,0.478-0.751
		c1.737-1.638,2.967-4.532,4.549-6.742c0.264-0.368,0.537-0.717,0.828-1.031c0.45-0.56,0.983-0.998,1.57-1.363
		c1.896-1.178,4.361-1.591,6.449-2.889c1.399-0.869,2.628-2.133,3.405-4.289c0.148-0.49,0.282-0.99,0.401-1.496
		c1.191-5.059,0.893-10.745-1.535-13.687c-3.242-3.928-9.366-1.849-14.338,1.239c-1.41,0.876-2.728,1.833-3.86,2.757
		c-0.51,0.416-1.01,0.773-1.501,1.078C57.251,59.739,52.544,55.692,46.495,59.449L46.495,59.449z"/>
</g>
</svg>
