<?xml version="1.0" standalone="no"?>
<!DOCTYPE svg PUBLIC "-//W3C//DTD SVG 20010904//EN"
 "http://www.w3.org/TR/2001/REC-SVG-20010904/DTD/svg10.dtd">
<svg version="1.0" xmlns="http://www.w3.org/2000/svg"
 width="1223.000000pt" height="1223.000000pt" viewBox="0 0 1223.000000 1223.000000"
 preserveAspectRatio="xMidYMid meet">
<metadata>
Created by potrace 1.11, written by Peter Selinger 2001-2013
</metadata>
<g transform="translate(0.000000,1223.000000) scale(0.100000,-0.100000)"
fill="#000000" stroke="none">
<path d="M5478 11964 c-2 -1 -71 -4 -153 -5 -116 -2 -180 -9 -280 -30 -71 -14
-164 -32 -205 -39 -70 -11 -154 -40 -372 -125 -80 -32 -131 -57 -230 -114 -21
-11 -55 -31 -75 -42 -21 -12 -67 -38 -103 -57 -36 -19 -94 -55 -130 -79 -36
-24 -103 -69 -150 -100 -47 -30 -111 -73 -143 -94 -32 -22 -59 -39 -61 -39 -6
0 -152 -86 -211 -124 -27 -18 -95 -62 -150 -98 -55 -36 -122 -78 -148 -94 -27
-16 -61 -37 -75 -46 -15 -10 -34 -21 -42 -24 -8 -4 -36 -22 -63 -41 -26 -18
-50 -33 -53 -33 -7 0 -81 -56 -105 -79 -9 -9 -36 -32 -60 -53 -24 -20 -55 -46
-69 -58 -14 -12 -50 -42 -80 -68 -104 -88 -215 -207 -310 -331 -52 -68 -107
-138 -121 -155 -30 -36 -130 -212 -211 -371 -52 -102 -174 -421 -214 -560 -58
-201 -164 -499 -203 -572 -41 -76 -330 -672 -353 -728 -40 -95 -141 -379 -144
-400 0 -5 -6 -28 -12 -50 -16 -57 -20 -86 -39 -319 -10 -111 -10 -364 -1 -427
3 -25 18 -101 32 -170 15 -68 42 -200 60 -294 41 -205 54 -254 106 -393 21
-59 67 -197 101 -307 34 -109 70 -219 80 -243 34 -79 121 -373 134 -452 2 -14
11 -49 20 -78 15 -48 58 -244 71 -317 2 -16 7 -37 9 -45 2 -8 6 -37 10 -65 3
-27 8 -58 11 -67 5 -18 12 -47 20 -88 3 -14 7 -33 10 -42 3 -10 7 -30 10 -45
2 -16 9 -50 14 -78 5 -27 11 -68 14 -90 10 -70 17 -108 38 -195 11 -47 21 -92
23 -100 1 -8 8 -33 13 -55 6 -22 13 -51 15 -65 3 -14 10 -45 17 -70 7 -25 14
-55 16 -68 3 -12 20 -73 39 -135 20 -61 37 -119 40 -127 27 -99 124 -361 167
-455 31 -66 75 -165 98 -220 47 -109 87 -184 209 -384 45 -72 81 -136 81 -141
0 -4 4 -10 8 -12 5 -1 24 -28 44 -58 19 -30 61 -86 93 -125 159 -189 289 -337
342 -389 127 -127 620 -506 657 -506 3 0 23 -10 44 -23 20 -13 65 -35 99 -50
34 -15 123 -57 197 -92 74 -36 141 -65 148 -65 8 0 18 -4 23 -9 6 -6 21 -12
35 -15 14 -3 86 -21 160 -41 130 -34 149 -39 207 -51 15 -3 30 -7 33 -9 4 -2
33 -7 66 -10 32 -3 79 -8 104 -10 25 -2 74 -8 110 -12 81 -10 470 -10 570 0
41 4 98 9 125 11 88 7 228 26 305 42 41 8 93 18 115 21 133 17 509 103 720
163 168 49 489 157 560 190 11 5 61 26 110 46 50 20 117 48 150 63 33 16 89
41 125 56 86 38 468 232 650 331 80 44 161 87 180 97 19 10 42 22 50 27 46 29
151 90 155 90 2 0 24 14 48 30 25 17 48 30 51 30 4 0 19 8 34 19 15 10 70 45
122 77 90 56 283 186 360 243 36 27 52 33 85 32 11 0 38 5 60 10 22 6 47 13
55 14 8 2 89 26 180 55 143 44 276 100 314 131 17 14 117 79 122 79 2 0 26 16
53 35 26 19 51 35 54 35 11 0 123 114 163 165 56 72 68 86 79 99 40 44 87 109
113 156 52 92 187 459 196 530 2 19 7 60 11 90 3 30 8 66 10 80 2 14 7 57 11
95 3 39 10 95 15 125 7 49 4 349 -6 530 -9 171 -16 287 -20 310 -13 89 -20
249 -19 475 2 255 2 263 33 390 30 123 66 238 82 260 4 6 20 42 37 82 37 87
263 463 284 471 4 2 8 8 8 13 0 6 17 36 38 67 21 31 52 82 69 112 16 30 60
109 97 174 107 188 351 705 399 846 8 25 36 104 62 175 26 72 49 141 51 155 3
14 12 54 20 90 8 36 17 81 20 100 2 19 6 49 9 65 26 174 26 652 0 780 -2 11
-7 40 -10 65 -35 297 -203 680 -389 888 -117 132 -222 217 -461 374 -233 153
-347 205 -655 303 -63 20 -121 38 -128 40 -7 3 -14 5 -17 5 -3 0 -22 7 -42 15
-48 18 -218 64 -258 69 -17 2 -57 8 -90 14 -90 17 -114 21 -180 32 -33 5 -71
12 -85 15 -13 2 -42 7 -65 10 -22 4 -51 8 -65 10 -61 9 -109 15 -165 20 -33 3
-82 7 -110 10 -70 8 -120 13 -195 20 -36 3 -81 8 -100 10 -19 2 -70 7 -113 10
-44 4 -87 8 -96 10 -10 2 -42 6 -72 10 -95 11 -206 44 -276 81 -38 20 -70 40
-73 44 -3 4 -10 9 -15 11 -14 5 -277 180 -291 194 -6 5 -22 17 -34 25 -20 13
-79 57 -105 78 -10 7 -247 173 -368 257 -32 22 -65 45 -75 50 -9 6 -40 25 -69
43 -30 17 -55 32 -57 32 -2 0 -43 24 -92 53 -95 57 -116 67 -240 120 -43 19
-105 47 -137 61 -106 49 -437 158 -549 180 -100 20 -131 27 -188 40 -36 8 -83
17 -105 20 -81 11 -121 16 -170 21 -27 3 -68 8 -90 11 -51 6 -144 12 -147 8z"/>
</g>
</svg>
